<svg xmlns="http://www.w3.org/2000/svg" width="79.63" height="27.777" viewBox="0 0 79.63 27.777">
  <path id="Path_3785" data-name="Path 3785" d="M1066.8,365.745a2.76,2.76,0,0,0,2.879-2.806,2.681,2.681,0,0,0-2.879-2.591,2.7,2.7,0,1,0,0,5.4Zm-2.264,22.38h4.493V368.911h-4.493Zm21.193-25.186h-10.364v25.186h4.677v-7.268h5.687c6.617,0,10.715-3.418,10.715-8.959C1096.443,366.321,1092.344,362.939,1085.728,362.939Zm-.219,13.96h-5.467v-10h5.467c4.1,0,6.222,1.835,6.222,5S1089.606,376.9,1085.508,376.9Zm36.314,11.226-9.469-13.025,8.82-12.161H1116.1l-6.371,8.959-6.441-8.959H1098l8.846,12.341-9.355,12.845h5.327l6.766-9.571,6.836,9.571Zm7.512-3.922v-6.944H1141.5v-3.85h-12.163V366.86h13.708v-3.922h-18.385v25.186h18.894V384.2Z" transform="translate(-1063.92 -360.348)" fill="#575757"/>
</svg>
