<svg id="logo" xmlns="http://www.w3.org/2000/svg" width="83.846" height="34.5" viewBox="0 0 83.846 34.5">
  <g id="Group_28" data-name="Group 28" transform="translate(0.237 8.832)">
    <path id="Path_3492" data-name="Path 3492" d="M25.548,39.305l-8.3,25.253H9.386L1.053,39.305H8.089l5.194,17.172L18.66,39.305Z" transform="translate(-1.053 -39.305)" fill="#010b2b"/>
    <path id="Path_3493" data-name="Path 3493" d="M742.891,346.3a1.945,1.945,0,0,0,.186.859V346.3Zm0,25.253h.186v-.8a1.947,1.947,0,0,0-.186.8Z" transform="translate(-687.701 -346.305)" fill="#010b2b"/>
    <path id="Path_3494" data-name="Path 3494" d="M643.38,347.164v23.59a1.947,1.947,0,0,0-.186.8h-6.127v-15.3l-5.591,15.3h-5.268l-5.595-15.3v15.3H614.3V346.3h8.8l5.991,17.245,5.665-17.245h8.434A1.944,1.944,0,0,0,643.38,347.164Z" transform="translate(-588.003 -346.305)" fill="#010b2b"/>
  </g>
  <path id="Path_3495" data-name="Path 3495" d="M827.691,346.426l-7.909,12.1a2.329,2.329,0,0,0-.18-.337l-3.99-6.107,3.695-5.653Z" transform="translate(-743.845 -337.567)" fill="#010b2b"/>
  <path id="Path_3496" data-name="Path 3496" d="M827.277,419.535h-8.384l-3.815-5.66,4.094-6.072a1.028,1.028,0,0,0,.09-.151Z" transform="translate(-743.431 -385.035)" fill="#010b2b"/>
  <path id="Path_3497" data-name="Path 3497" d="M272.087,52.247l-.26.388-3.4,5.035-4.724,7.009h-8.384l8.384-12.432-8.384-12.821h8.384l4.856,7.424v0Z" transform="translate(-197.953 -30.567)" fill="#2980c9"/>
  <path id="Path_3498" data-name="Path 3498" d="M88.5,0,85.7,5.562H84.5L84.37,1.494,82.261,5.562H81.032L80.817,0h1.164l.051,3.892L84.017,0h1.292l.133,3.851L87.349,0Z" transform="translate(-62.658)" fill="#010b2b"/>
  <path id="Path_3499" data-name="Path 3499" d="M611.846,315.838a2.914,2.914,0,0,0,.079-.71,1.746,1.746,0,0,0-.454-1.281,1.649,1.649,0,0,0-1.223-.456,2.189,2.189,0,0,0-1.862.873,2.412,2.412,0,0,0-.474,1.471,1.81,1.81,0,0,0,.527,1.361,1.887,1.887,0,0,0,1.374.515,2.156,2.156,0,0,0,1.111-.292,2.1,2.1,0,0,0,.792-.885l-1.013-.161a.972.972,0,0,1-.881.562.772.772,0,0,1-.58-.248.885.885,0,0,1-.24-.649.945.945,0,0,1,0-.1Zm-2.35-1.414a.906.906,0,0,1,.629-.256.732.732,0,0,1,.563.225.954.954,0,0,1,.208.671c0,.025,0,.063,0,.11h-1.772A1.33,1.33,0,0,1,609.5,314.425Z" transform="translate(-582.813 -311.953)" fill="#010b2b"/>
  <path id="Path_3500" data-name="Path 3500" d="M7.685.324l-2.8,5.563h-1.2L3.553,1.818,1.443,5.887H.217L0,.324H1.164l.051,3.892L3.2.324H4.49l.134,3.851L6.532.324Z" transform="translate(0 -0.251)" fill="#010b2b"/>
  <path id="Path_3501" data-name="Path 3501" d="M630.271,313.512l-.434.893a.968.968,0,0,0-.328-.055,1.047,1.047,0,0,0-.6.212,1.465,1.465,0,0,0-.469.568,5.332,5.332,0,0,0-.337,1.123l-.277,1.264H626.7l.875-4.03h1.056l-.169.782a1.626,1.626,0,0,1,1.284-.876A1.368,1.368,0,0,1,630.271,313.512Z" transform="translate(-597.381 -311.957)" fill="#010b2b"/>
  <path id="Path_3502" data-name="Path 3502" d="M531.025,316.164a2.907,2.907,0,0,0,.079-.708,1.745,1.745,0,0,0-.454-1.281,1.647,1.647,0,0,0-1.225-.458,2.17,2.17,0,0,0-1.856.873,2.4,2.4,0,0,0-.48,1.473,1.818,1.818,0,0,0,.529,1.359,1.885,1.885,0,0,0,1.374.515,2.125,2.125,0,0,0,1.111-.3,2.086,2.086,0,0,0,.793-.881l-1.017-.163a.972.972,0,0,1-.879.562.781.781,0,0,1-.582-.247.892.892,0,0,1-.24-.649c0-.022,0-.057,0-.1Zm-2.35-1.416a.914.914,0,0,1,.629-.252.736.736,0,0,1,.562.222.964.964,0,0,1,.21.674q0,.037-.006.11H528.3a1.35,1.35,0,0,1,.378-.754Z" transform="translate(-520.151 -312.205)" fill="#010b2b"/>
  <path id="Path_3503" data-name="Path 3503" d="M147.342,3l.895,2.566h-1.131L146.529,3.7l-.765.654L145.5,5.562h-1.134L145.578,0h1.133l-.633,2.9,1.476-1.363h1.472Z" transform="translate(-111.926)" fill="#010b2b"/>
  <path id="Path_3504" data-name="Path 3504" d="M550.185,309.194a1.388,1.388,0,0,0-1.062-.427,1.7,1.7,0,0,0-.588.1,2.363,2.363,0,0,0-.584.324l.407-1.858h-1.137l-1.209,5.563h1.031l.145-.668a1.411,1.411,0,0,0,1.323.761,1.76,1.76,0,0,0,.726-.157,2.244,2.244,0,0,0,.657-.48,2.365,2.365,0,0,0,.5-.845,3.1,3.1,0,0,0,.189-1.07A1.753,1.753,0,0,0,550.185,309.194Zm-.871,2.143a1.423,1.423,0,0,1-.431.629.871.871,0,0,1-.543.2.756.756,0,0,1-.562-.252.926.926,0,0,1-.24-.661,2.043,2.043,0,0,1,.423-1.325.924.924,0,0,1,.735-.378.743.743,0,0,1,.56.244.941.941,0,0,1,.232.674A2.367,2.367,0,0,1,549.315,311.337Z" transform="translate(-534.823 -307.257)" fill="#010b2b"/>
  <path id="Path_3505" data-name="Path 3505" d="M663.722,316.185a1.256,1.256,0,0,1-.5.994,2.145,2.145,0,0,1-1.416.422,2.582,2.582,0,0,1-1.4-.321,1.584,1.584,0,0,1-.673-.9l1.1-.167a1.025,1.025,0,0,0,.363.472,1.093,1.093,0,0,0,.593.139,1.044,1.044,0,0,0,.621-.167.331.331,0,0,0,.161-.277.281.281,0,0,0-.083-.2,1.458,1.458,0,0,0-.469-.205,5.119,5.119,0,0,1-1.27-.515.93.93,0,0,1-.386-.775,1.094,1.094,0,0,1,.373-.825,2.186,2.186,0,0,1,1.535-.48,2.163,2.163,0,0,1,1.224.285,1.233,1.233,0,0,1,.523.768l-1.045.176a.637.637,0,0,0-.268-.331,1.192,1.192,0,0,0-.608-.147.872.872,0,0,0-.512.116.321.321,0,0,0-.157.26.289.289,0,0,0,.159.25,3.693,3.693,0,0,0,.636.213,3.469,3.469,0,0,1,1.108.454A.944.944,0,0,1,663.722,316.185Z" transform="translate(-622.99 -311.943)" fill="#010b2b"/>
</svg>
